<svg xmlns="http://www.w3.org/2000/svg" viewBox="0 0 78.88 78.88"><defs><style>.cls-1{fill:none;}.cls-2{fill:#a5a5a5;}</style></defs><title>Fichier 6</title><g id="Calque_2" data-name="Calque 2"><g id="Calque_2-2" data-name="Calque 2"><rect class="cls-1" width="78.88" height="78.88"/></g><g id="Calque_1-2" data-name="Calque 1"><path class="cls-2" d="M62.13,21.09H56.88V19.35a3.74,3.74,0,0,0-7.48,0v7.3a3.74,3.74,0,0,0,7.48,0V23.09h5.25A1.89,1.89,0,0,1,64,25v8.89H14.87V25a1.89,1.89,0,0,1,1.89-1.89h2.8a1,1,0,0,0,0-2h-2.8A3.89,3.89,0,0,0,12.87,25V59.39a3.89,3.89,0,0,0,3.89,3.89H62.13A3.9,3.9,0,0,0,66,59.39V25A3.89,3.89,0,0,0,62.13,21.09Zm-7.25,5.56a1.74,1.74,0,0,1-3.48,0v-7.3a1.74,1.74,0,0,1,3.48,0Zm7.25,34.63H16.76a1.89,1.89,0,0,1-1.89-1.89V35.87H64V59.39A1.89,1.89,0,0,1,62.13,61.28Z"/><path class="cls-2" d="M25.8,30.39h.12a3.8,3.8,0,0,0,3.8-3.8v-3.5H45.53a1,1,0,0,0,0-2H29.72V19.41a3.8,3.8,0,0,0-3.8-3.8H25.8a3.8,3.8,0,0,0-3.8,3.8v7.18A3.8,3.8,0,0,0,25.8,30.39Zm-1.8-11a1.8,1.8,0,0,1,1.8-1.8h.12a1.8,1.8,0,0,1,1.8,1.8v2.05a1,1,0,0,0-.24.63,1,1,0,0,0,.24.63v3.87a1.8,1.8,0,0,1-1.8,1.8H25.8a1.8,1.8,0,0,1-1.8-1.8Z"/><path class="cls-2" d="M31.79,39.36H21.52a3.17,3.17,0,0,0-3.17,3.17V52.79A3.18,3.18,0,0,0,21.52,56H31.79A3.18,3.18,0,0,0,35,52.79V42.53A3.17,3.17,0,0,0,31.79,39.36ZM33,52.79A1.18,1.18,0,0,1,31.79,54H21.52a1.17,1.17,0,0,1-1.17-1.18V42.53a1.17,1.17,0,0,1,1.17-1.17H31.79A1.17,1.17,0,0,1,33,42.53Z"/></g></g></svg>